<svg version="1.1"
	baseProfile="tiny"
	id="Layer"
	xmlns="http://www.w3.org/2000/svg"
	xmlns:xlink="http://www.w3.org/1999/xlink"
	x="0px"
	y="0px"
	width="128px"
	height="128px"
	viewBox="0 0 128 128"
	xml:space="preserve">


	<!-- Animation -->
	<style type="text/css">

		@keyframes slide_out_then_in
		{
			0% { transform: translateY(0); animation-timing-function: step-end; }	
			42% { transform: translateY(0); }
			50% { transform: translateY(128px); animation-timing-function: step-end; }	
			92% { transform: translateY(-128px); }
			100% { transform: translateY(0);}		
		}

		@keyframes slide_in_then_out
		{
			0% { transform: translateY(-128px); animation-timing-function: step-end; }	
			42% { transform: translateY(-128px); }
			50% { transform: translateY(0); animation-timing-function: step-end; }	
			92% { transform: translateY(0); }
			100% { transform: translateY(128px);}		
		}		

		#e_wrapper
		{ animation: slide_out_then_in 5s infinite; }
	
		#unity_wrapper
		{
			animation: slide_in_then_out 5s infinite;
			transform: translateY(-128px); /* Fallback */
		}

	</style>


	<!-- Definitions -->
	<defs>

    	<clipPath id="clipping_path"><circle cx="64" cy="64" r="64"/></clipPath>

    	<circle id="circle" cx="64" cy="64" r="64"/>

		<path id="e" d="M66.491,45.44c1.364,0,2.26,0.493,2.688,1.473c0.426,0.982,0.554,2.196,0.384,3.647L68.54,57.6
			c-0.087,0.854-0.557,1.28-1.407,1.28h-5.122c-0.854,0-1.238-0.426-1.151-1.28l1.024-7.04c0.083-0.851,0.449-1.92,1.088-3.2
			C63.611,46.08,64.784,45.44,66.491,45.44L66.491,45.44z M92.092,63.487c0.768-3.411,0.852-6.74,0.256-9.983
			c-0.598-3.241-1.9-6.123-3.902-8.64c-2.008-2.515-4.738-4.543-8.194-6.08c-3.455-1.536-7.659-2.304-12.607-2.304
			c-4.095,0-8.107,0.575-12.032,1.729c-3.925,1.151-7.383,3.028-10.368,5.631c-2.988,2.604-5.397,5.951-7.232,10.048
			c-1.835,4.096-2.75,9.087-2.75,14.976c0,4.013,0.64,7.447,1.918,10.306s3.091,5.206,5.44,7.04c2.347,1.835,5.14,3.18,8.384,4.029
			c3.241,0.854,6.868,1.281,10.88,1.281c6.569,0,11.881-1.066,15.937-3.199c4.051-2.133,7.486-5.375,10.303-9.729
			c0.426-0.682,0.34-1.28-0.254-1.792l-4.226-3.456c-0.257-0.152-0.481-0.23-0.677-0.23c-0.129,0-0.244,0.034-0.348,0.102
			c-0.256,0.173-0.512,0.385-0.768,0.642c-1.365,1.534-2.668,2.858-3.902,3.968c-1.238,1.109-2.521,2.028-3.841,2.752
			c-1.325,0.727-2.753,1.26-4.288,1.6c-1.537,0.343-3.287,0.512-5.249,0.512c-2.733,0-4.542-0.361-5.439-1.088
			c-0.896-0.724-1.216-2.068-0.961-4.032l1.153-8.447c0.085-0.852,0.554-1.28,1.407-1.28h25.601c2.048,0,3.434-0.404,4.159-1.216
			S91.75,64.769,92.092,63.487L92.092,63.487z"/>

	  	<path id="unity" d="M86.713,64.164L86.713,64.164l4.141-7.172l-7.2-26.873L56.779,37.32l-0.039,0.011l-4.152,7.19h-8.281
	  		L24.635,64.193l19.702,19.703h8.303l4.141,7.171l26.873,7.199l7.201-26.873l0.011-0.039L86.713,64.164 M53.28,45.66l20.757-5.561
	  		L62.054,60.856H38.085L53.28,45.66z M53.28,82.728L38.085,67.531h23.969l11.983,20.758L53.28,82.728z M79.819,84.951L67.835,64.193
	  		l11.984-20.757l5.562,20.757L79.819,84.951z"/>

  	</defs>


  	<!-- Scene -->
	<use xlink:href="#circle" fill="#35B788" />

	<g id="e_wrapper">
		<use xlink:href="#e"
			 fill="#FFFFFF"
			 clip-path="url(#clipping_path)" />
	</g>

	<g id="unity_wrapper">
		<use xlink:href="#unity"
			 fill="#FFFFFF"
			 clip-path="url(#clipping_path)" />
	</g>

</svg>
